<svg id="Layer_1" data-name="Layer 1" xmlns="http://www.w3.org/2000/svg" viewBox="0 0 799.27 796.17"><defs><style>.cls-1{fill:#fff;}.cls-2{fill:#aa182c;}.cls-3{fill:#001f60;}.cls-4{fill:#faba28;}.cls-5{fill:#cfd2d3;}</style></defs><path class="cls-1" d="M683.4,351.35a57.39,57.39,0,0,0-5.31-16.2,63.75,63.75,0,0,0-16-20.37c2.43-17,4.48-34,6.5-50.87,2.38-19.77,4.84-40.23,7.88-60l1.2-7.85h0v0l-6.49-4.56c-138.77-97.57-411.14-97.57-549.89,0L114.84,196v0h0l1.2,7.85c3,19.81,5.5,40.26,7.88,60,8.35,69.52,17,141.39,52.61,211.3,19.31,37.89,44.59,71.65,77.29,103.21,36.48,35.21,81.11,66.69,136.42,96.26l6,3.22,6-3.22c55.31-29.57,99.94-61,136.42-96.26,32.7-31.56,58-65.32,77.29-103.21,3-5.8,5.71-11.62,8.31-17.45l1-2.14h0c.72-1.64,1.41-3.29,2.11-4.93C660.24,432.82,690.45,392.74,683.4,351.35Z"/><path class="cls-1" d="M663.85,201.94c-134.19-94.36-401-94.36-535.15,0,24,156.47,8.46,323,267.57,461.45C655.39,524.89,639.84,358.41,663.85,201.94Z"/><path class="cls-2" d="M524.53,517.86a311.74,311.74,0,0,0,52.72-88.1c3.3-8.38,6.2-16.83,8.8-25.32-4.46-.57-9-.85-13.22-1a194.72,194.72,0,0,0-19.63.31l-4.63,3c-16.53,10.7-28.91,24.67-33.2,44.09-4.47,20.2.61,43.65,9.16,67m90.38-288c-112-74.7-325.3-74.7-437.28,0,7.85,55.72,11.15,111.39,26.14,165.31C231.09,349.19,266,306.8,309.05,274.84l-82-10.7,112.52-34.07L271.81,204l120.51-9.46c50.78-2.31,114.21-1.77,160,22.3l.34.18.33.2c12.79,7.94,24.06,17.17,33.54,28.85,6.74,8.3,11.79,17.06,17.56,25.94q2.26,3.48,4.72,6.57c1.92-16.21,3.83-32.49,6.12-48.76"/><path class="cls-3" d="M163.77,223.5l.45,3.11.05.29.4,2.81.08.59.35,2.51.14.92.3,2.2.15,1.21.27,1.92.19,1.49.21,1.62.25,1.79.17,1.33.27,2.1.12,1,.32,2.4.08.72.35,2.72,0,.4.37,3v.11l.38,3.13,0,.18.34,2.95.08.49.3,2.65.11.78.26,2.36.13,1.09.25,2,.16,1.4.2,1.74.21,1.71.16,1.44.24,2,.14,1.14.26,2.31.11.83.31,2.61.05.53.35,2.93,0,.23.38,3.14,0,.07.35,3.08.05.38.34,2.77.08.68.32,2.47.13,1,.27,2.16.16,1.29.46,3.47.19,1.55.25,1.88.18,1.27.3,2.2.14.94.34,2.51.09.64.4,2.83.06.34.44,3.11,0,0,.45,3.15,0,.27.45,2.88.09.57.42,2.59.13.87.37,2.28.19,1.18.33,2,.25,1.48.3,1.68.31,1.79.24,1.36.15.84.42,2.32.46,2.39.13.75.52,2.7.08.47.6,3,0,.16L184,368l0,.16.64,3,.09.44.59,2.7.17.76.54,2.39.23,1,.49,2.1.31,1.35.43,1.79.41,1.67.36,1.47.11.41.61,2.43.07.31.6,2.26.22.88.7,2.57.15.56.79,2.86.08.28.89,3.14v0l.92,3.11.09.35.85,2.79.62,2,.36,1.14.3.95.71,2.18.1.3.69,2.14.46,1.31.6,1.8.24.69.65,1.84.17.49.28.79c29.89-56.81,71-110.38,124.51-147.31,4.27-2.93,9-6,14.12-9.13l-61.08-8,70.39-21.31c8.9-2.69,18-5.27,27.19-7.59l-64-22.29,82.11-3.75c48.13-2.21,110.72-1.94,154.46,21.06,29.15,18.1,37.3,35.4,47.8,51.56,24.48,37.66,56.1,32.45,71.59,63.21a44.5,44.5,0,0,1,4.12,12.59c6.05,35.52-21.12,71.64-51.78,87.14-4.09-14.91-3.27-23.19-6.51-37.12a2.16,2.16,0,0,0-.21-.55c-1.52-2.81-8.14-5.25-11-6.11-8.76-2.71-19-3.65-28.11-3.95a213.19,213.19,0,0,0-23.55.52l-6.93,4.49c-56,36.24-42.87,91.08-20.67,142.29,40.41-43,62.9-87.75,76.62-133.11a32.51,32.51,0,0,1,4,1.59c.87,4.28,1.44,8.54,2,12.94a150.93,150.93,0,0,0,4,21.76l3.06,11.16c-33.17,73.13-94.26,144-215.46,208.82-259.11-138.5-243.56-305-267.57-461.45,134.18-94.36,401-94.36,535.15,0C658.44,237.18,655,273,650,308.81c-7.09-4.38-14.58-8.11-21.59-12.65a91.31,91.31,0,0,1-8.09-5.88c2.68-22.39,5.11-44.7,8.42-66.78-116.58-83.92-348.41-83.92-465,0"/><path class="cls-4" d="M582.86,313.29s11.06,14.36-6.38,9.47c3-3.93,4.09-3.84,6.38-9.47m1-28.18s-1.81,18-17.4,21.31c0,0-3.31,30.87-31.6,49.93-7.52,5.08-16.38,5.91-19.07,14-1.67,5,.46,11,22.47,8.3,30.37-3.73,82.25-3.3,88,21.2a48.22,48.22,0,0,0,1.32-4.69c1.58-8.87-4-21.06-83.44-25.88a17.21,17.21,0,0,1-6.13.84c-14,.18-5.9-7.93,1.1-8a17.06,17.06,0,0,1,6.34.72c88.39,5.39,92.62,23,89.5,32.29-.91,2.7-6,17.86-6,17.9l0,0a39.32,39.32,0,0,1-1.6,4.14s39.22-40.9,25-69.21c-14.81-29.42-50.86-21.06-68.39-62.84"/><path class="cls-1" d="M639.06,395.05A96.72,96.72,0,0,0,646.62,381c4.13-9.64,6.82-21.29,1.85-31.14A38.94,38.94,0,0,0,635.33,335,112.47,112.47,0,0,0,622,327.4l-2.25-1.15c43,25.49,19.31,68.8,19.31,68.8"/><path class="cls-1" d="M440.68,237.31s-26-2.36-88.46,16.54l43.37,5.66s-104.21,23.26-182.8,174.16c0,0,16.83-12.15,39.58-26.33v0s4.74-3.07,12.83-7.81c18.22-10.84,38.67-21.8,56.81-28.74,19.26-8.19,40.45-15.47,60.72-19,0,0-24.6,11.74-61.49,32.13-16.72,23.63-41,70.31-35.4,136.78,0,0,12.64-54.24,49.5-88.35A182.67,182.67,0,0,1,391.77,395s-15,12.81-43.49,46.31c-3.1,19.37-2.7,51.19,13.61,98.3,0,0,8.85-49.92,28.41-82.3a180.42,180.42,0,0,1,29.17-39.55s-7.8,15.64-19.66,52.43c4.31,22,17.7,57.71,57.2,102.54,0,0-11.46-25.6-11.75-59.29A182.61,182.61,0,0,1,460,432.89s-2.05,20.35.8,65.92c8.48,15.51,24.56,36.93,55.14,62.88-38.43-58.07-44.05-136.89,17.95-177-4.07.13-12.2-.05-15.74-1-4.86-1.39-10.57-4-11.77-9.07-1.75-7.42,6.33-14,13.55-16.81,15.82-6.14,25.31-16.17,33.14-31.07.88-1.66,1.76-3.57,2.6-5.57-32.48,33.27-62.83,16.6-62.83,16.6,20,3.11,38.1-11.88,38.1-11.88-26.58-8-24.8-23.21-24.8-23.21-10.11,1.88-57.94,1.92-57.94,1.92,17.23-5.63,54-10.38,54-10.38-12.9-2.66-84.41-3.95-84.41-3.95,39-7.24,76.08-3.53,94.83-4.07-13.3-6.84-36.21-18.66-36.21-18.66,14.12,2.38,36.78,7.5,50.59,13.21,13.16,5.4,19.17,19.3,40.23,13.18,12.36-3.59,13.24-16.3,5.41-30.5-27.56-50.08-160-53.19-185.2-42.33,9.88,2.63,25.94,6.76,53.18,16.25"/><path class="cls-1" d="M550.52,315.36s-7.82,5.73-14.92,5.49c-25.48-.79-34.9-45.74-.32-19.78-4.61-1.47-9.38-1-11.64,1.4-2.84,3-.75,7.88,4.69,10.9s12.16,3,15,0a4.52,4.52,0,0,0,1.12-4.34c1.94,1.91,3.94,4,6.07,6.29"/><path class="cls-1" d="M537.32,308.34a3,3,0,0,1,2.28,3.53,3,3,0,0,1-3.59,2.22,2.92,2.92,0,0,1-2.26-3.52,3,3,0,0,1,3.57-2.23"/><path class="cls-5" d="M418.44,222.7c-4.78-.07-9.27-.07-13.39,0l38.08,13.27a83.9,83.9,0,0,0-24.69-13.24m-56.05,30.35L407.76,259l26.78-3.91Zm42,203.38a106.82,106.82,0,0,0,4.07,22.65c6.45,22.76,18.92,44.83,33.4,64.68-.09-.48-.16-1-.26-1.45-4.23-23.11-3.89-47.24,2.72-69.88h0l-14.47,29.81c-.41,1.8-7.87-40.79-7.87-40.79l-3.69,18c-5.58-11-8.59-24.38-10.16-33.54-1.15,3.21-2.41,6.73-3.72,10.56M357.09,431.1A85.87,85.87,0,0,0,354,446.29c-2.68,22,1,46.13,7,68.51a293.62,293.62,0,0,1,13.15-39.43c4.9-11.62,11.1-23.69,19.22-33.45l15.43-18.59-43.88,39.94c-3.25-13.52.84-32.86,4.49-45.82q-5.49,5.94-12.27,13.65m16.71-27.43-.08.1,0,0Zm-38.65-27.33c-1.19,1.39-2.32,2.79-3.39,4.12a176.18,176.18,0,0,0-18.51,28.77,196.33,196.33,0,0,0-21.12,74.69c1-2.35,2.14-4.69,3.29-7,12.9-26.09,31.7-51,57.79-65.4l24.35-13.45a148.94,148.94,0,0,0-42.29,16l12.05-16.92c-18.76,7-33.63,32.9-33.63,32.9,2.91-14.09,19.15-43.52,26.58-56.52Zm45.79-108.48c-15.16,6.24-30.55,18.15-44,27.42-43.72,30.14-78.61,72.36-105.5,117.9,16.07-10.6,32.56-20.76,49.47-30,16.41-9,35.21-18.25,53.31-23.14l-53.42,8.76c15.43-32.43,100.12-101,100.12-101M492.65,530.92c-12.35-30.88-16.51-65.49-5.77-96.82a102.93,102.93,0,0,1,29.76-44.31.65.65,0,0,1-.2-.05c-41,8-53.52,99.09-53.52,99.1.59,1.3,1.2,2.57,1.82,3.8,6.76,13.43,16.8,26.41,27.91,38.28m34.13-254.39c13,6,20.51,18.29,39.53,12.76,13.23-3.85,9-14.35,3.39-23.48-6.64-10.77-20.09-18.92-36.93-25,21.91,12.3,41.64,29.23,33.07,38.33-8.46,8.95-38.12-2.24-39.06-2.6"/></svg>