<svg id="Layer_1" data-name="Layer 1" xmlns="http://www.w3.org/2000/svg" viewBox="0 0 1510.9 801.33"><defs><style>.cls-1{fill:#fff;}.cls-2{fill:#aa1e2e;}.cls-3{fill:#001f60;}.cls-4{fill:#faba28;}.cls-5{fill:#cfd2d3;}</style></defs><path class="cls-1" d="M1152.7,606.79h54.17V588.17h-33.7V476.47H1152.7ZM1082,575.51c0,20.86,11,32.77,31.09,32.77s31.09-11.91,31.09-32.77V507.75c0-20.85-11-32.77-31.09-32.77S1082,486.9,1082,507.75Zm20.48-69.07c0-9.31,4.1-12.84,10.61-12.84s10.61,3.53,10.61,12.84v70.38c0,9.31-4.1,12.84-10.61,12.84s-10.61-3.53-10.61-12.84Zm-89.55,69.07c0,20.86,11,32.77,31.09,32.77s31.09-11.91,31.09-32.77V507.75c0-20.85-11-32.77-31.09-32.77s-31.09,11.92-31.09,32.77Zm20.48-69.07c0-9.31,4.09-12.84,10.61-12.84s10.61,3.53,10.61,12.84v70.38c0,9.31-4.1,12.84-10.61,12.84s-10.61-3.53-10.61-12.84Zm-73.17,44.5h23.27v55.85h20.85V476.47H983.46v55.85H960.19V476.47H939.71V606.79h20.48Zm-47.66,7.26v18.62c0,9.31-4.09,12.66-10.61,12.66s-10.61-3.35-10.61-12.66V506.44c0-9.31,4.1-12.84,10.61-12.84s10.61,3.53,10.61,12.84v14h19.36V507.75c0-20.85-10.42-32.77-30.53-32.77s-30.53,11.92-30.53,32.77v67.76c0,20.86,10.43,32.77,30.53,32.77s30.53-11.91,30.53-32.77V558.2ZM804.92,507.75c0,37.23,40,42.26,40,69.07,0,9.31-4.09,12.66-10.61,12.66s-10.61-3.35-10.61-12.66v-9.31H804.37v8c0,20.86,10.42,32.77,30.53,32.77s30.53-11.91,30.53-32.77c0-37.23-40-42.26-40-69.07,0-9.31,3.72-12.84,10.24-12.84s10.24,3.53,10.24,12.84v5.4h19.36v-4.09C865.24,486.9,855,475,835.09,475s-30.17,11.92-30.17,32.77"/><path class="cls-1" d="M1323.79,465.75h21V335.43h-18.25v78l-21-78h-25.69V465.75h18.44V371.36Zm-85.45-107.24,9.86,65.91h-19.73Zm16-23.08h-30l-20.85,130.32h18.8l3.54-23.64H1251l3.54,23.64h20.67Zm-72.6,81.73v18.61c0,9.32-4.1,12.67-10.61,12.67s-10.61-3.35-10.61-12.67V365.4c0-9.31,4.09-12.85,10.61-12.85s10.61,3.54,10.61,12.85v14h19.36V366.7c0-20.85-10.43-32.77-30.53-32.77S1140,345.85,1140,366.7v67.77c0,20.85,10.42,32.77,30.53,32.77s30.53-11.92,30.53-32.77V417.16ZM1111,465.75h20.47V335.43H1111Zm-39.85-111.7c7.27,0,10.43,4.09,10.43,13.4v12.84c0,10.43-4.66,13.78-12.29,13.78h-8v-40Zm33.33,111.7c-2-4.84-2.23-9.49-2.23-15.83v-20.1c0-13.6-3.36-23.46-13.6-27.75,9.13-4.28,13.41-13,13.41-26.43V365.4c0-20.11-9.12-30-30.35-30h-30.9V465.75h20.48V412.69h7.07c9.31,0,13.41,4.47,13.41,16.57v20.48c0,10.61.74,12.66,1.86,16ZM997.43,354.05h35.37V335.43H977V465.75h55.85V447.13H997.43V409h28.11V390.35H997.43Zm-88.25-18.62H880.7V465.75h17.87V373.59l15.27,92.16H933.2l14.15-93.46v93.46h19.36V335.43H938.23l-14,92.53Zm-70,23.08,9.87,65.91H829.31Zm16-23.08h-30L804.37,465.75h18.8l3.54-23.64h25.13l3.54,23.64H876Z"/><path class="cls-1" d="M1342.22,213h35.38V194.38h-55.86V324.71h55.86V306.09h-35.38V267.92h28.11V249.3h-28.11Zm-60.32,0c7.26,0,10.43,4.1,10.43,13.4v12.85c0,10.42-4.65,13.78-12.29,13.78h-8V213Zm33.33,111.71c-2-4.85-2.24-9.5-2.24-15.83V288.77c0-13.59-3.35-23.45-13.58-27.74,9.12-4.28,13.4-13,13.4-26.43V224.36c0-20.11-9.13-30-30.35-30h-30.9V324.71H1272V271.64h7.07c9.31,0,13.4,4.47,13.4,16.57v20.48c0,10.62.75,12.67,1.87,16Zm-134.42-31.28c0,20.85,11,32.76,31.09,32.76S1243,314.28,1243,293.43V225.66c0-20.85-11-32.77-31.09-32.77s-31.09,11.92-31.09,32.77Zm20.48-69.07c0-9.31,4.1-12.85,10.61-12.85s10.61,3.54,10.61,12.85v70.37c0,9.31-4.09,12.85-10.61,12.85s-10.61-3.54-10.61-12.85ZM1147.11,213c6.52,0,10.06,3,10.06,12.29v19.55c0,9.3-3.54,12.28-10.06,12.28h-9.68V213Zm0-18.62H1117V324.71h20.48v-49h9.68c20.48,0,30.53-11.35,30.53-32.21V226.59c0-20.85-10.05-32.21-30.53-32.21m-71.86,23.09,9.87,65.9h-19.74Zm16-23.09h-30l-20.85,130.33h18.8l3.55-23.65h25.13l3.54,23.65h20.66Zm-82.48,76.34h9.31v24c0,9.31-4.1,12.66-10.61,12.66s-10.62-3.35-10.62-12.66V224.36c0-9.31,4.1-12.85,10.62-12.85s10.61,3.54,10.61,12.85v14h19.36V225.66c0-20.85-10.42-32.77-30.53-32.77s-30.53,11.92-30.53,32.77v67.77c0,20.85,10.42,32.76,30.53,32.76s30.53-11.91,30.53-32.76V252.1h-28.67Zm-61.81,54h21V194.38H949.76v78l-21-78H903V324.71h18.43V230.32Zm-74.46,0H893V194.38H872.51Zm-67.59-99c0,37.23,40,42.26,40,69.07,0,9.31-4.09,12.66-10.61,12.66s-10.61-3.35-10.61-12.66v-9.31H804.37v8c0,20.85,10.42,32.76,30.53,32.76s30.53-11.91,30.53-32.76c0-37.24-40-42.26-40-69.07,0-9.31,3.73-12.85,10.24-12.85s10.24,3.54,10.24,12.85v5.39h19.36v-4.09c0-20.85-10.23-32.77-30.15-32.77s-30.17,11.92-30.17,32.77"/><path class="cls-1" d="M690.59,354.53a57.31,57.31,0,0,0-5.33-16.28,63.94,63.94,0,0,0-16-20.46c2.45-17.13,4.5-34.19,6.54-51.1,2.39-19.87,4.85-40.42,7.91-60.32l1.21-7.88h0v0l-6.53-4.59c-139.4-98-413-98-552.44,0l-6.53,4.59v0h0l1.21,7.88c3.06,19.9,5.53,40.45,7.91,60.32,8.4,69.83,17.07,142.05,52.86,212.28,19.4,38.06,44.8,72,77.65,103.69,36.65,35.37,81.49,67,137.06,96.71l6.06,3.24,6.06-3.24C463.77,649.66,508.6,618,545.25,582.66,578.11,551,603.5,517,622.9,479q4.46-8.75,8.35-17.53l1-2.15h0c.73-1.65,1.42-3.3,2.12-4.95C667.32,436.38,697.68,396.12,690.59,354.53Z"/><path class="cls-1" d="M671,204.42c-134.82-94.79-402.85-94.79-537.66,0,24.13,157.2,8.51,324.47,268.83,463.61C662.45,528.89,646.83,361.62,671,204.42Z"/><path class="cls-2" d="M531,521.82a313.14,313.14,0,0,0,53-88.51c3.31-8.42,6.23-16.91,8.84-25.44-4.48-.57-9-.85-13.28-1a193.58,193.58,0,0,0-19.72.31l-4.66,3c-16.61,10.75-29,24.79-33.35,44.29-4.49,20.3.61,43.86,9.2,67.34m90.81-289.4c-112.52-75-326.82-75-439.32,0,7.88,56,11.2,111.92,26.26,166.08,27.45-46.14,62.47-88.73,105.77-120.83l-82.37-10.75,113.05-34.23-68.1-26.21L398.16,197c51-2.32,114.74-1.78,160.72,22.41l.35.17.33.2c12.85,8,24.17,17.25,33.69,29,6.77,8.34,11.85,17.14,17.64,26.06q2.28,3.51,4.75,6.6c1.92-16.29,3.85-32.64,6.15-49"/><path class="cls-3" d="M168.54,226.09l.45,3.11.06.3.39,2.82.08.6.35,2.52.15.92.3,2.21.15,1.22.27,1.92.2,1.51.21,1.62.24,1.8.18,1.33.26,2.11.12,1,.32,2.41.09.72.35,2.73,0,.41.38,3v.11l.37,3.14,0,.19.35,3,.08.48.29,2.67.11.78.27,2.37.13,1.09.25,2,.16,1.41.2,1.74.21,1.72.17,1.45.24,2,.13,1.14.27,2.32.11.84.31,2.62.05.53.35,2.94,0,.24.39,3.15,0,.07.35,3.09.06.39.34,2.78.08.68.32,2.49.13,1,.27,2.17.16,1.29.47,3.49.19,1.56.25,1.89.18,1.27.3,2.21.14.95.34,2.52.09.64.4,2.85.06.34.45,3.12,0,0,.45,3.17.05.27.45,2.89.09.57.42,2.6.13.88.38,2.3.19,1.18.33,2,.25,1.48.3,1.69.31,1.79.24,1.38.15.84.43,2.33.45,2.4.13.75.52,2.72.09.47.6,3,0,.17.64,3.16,0,.16.64,3,.09.44.59,2.71.17.76.54,2.4.23,1.06.5,2.1.31,1.36.43,1.81.41,1.67.37,1.48.11.41.61,2.44.07.31.6,2.27.22.88.71,2.59.14.56.8,2.88.08.28.89,3.15v0l.93,3.13.09.34.85,2.81.62,2,.37,1.14.3,1,.71,2.19.1.3.7,2.15.45,1.31.61,1.82.25.69.65,1.85.16.49.29.79c30-57.07,71.3-110.9,125.09-148,4.29-2.94,9.08-6.06,14.19-9.17l-61.37-8,70.72-21.41c8.94-2.71,18.07-5.3,27.32-7.63l-64.31-22.4,82.49-3.77c48.36-2.21,111.24-1.94,155.18,21.17,29.29,18.18,37.47,35.57,48,51.8,24.6,37.83,56.37,32.6,71.93,63.5a44.59,44.59,0,0,1,4.13,12.65c6.09,35.69-21.21,72-52,87.55-4.1-15-3.28-23.3-6.53-37.3a2.6,2.6,0,0,0-.21-.55c-1.53-2.82-8.19-5.28-11-6.14-8.8-2.72-19-3.66-28.24-4a212.75,212.75,0,0,0-23.66.53l-7,4.51c-56.28,36.41-43.07,91.5-20.77,143,40.61-43.21,63.2-88.16,77-133.72a31.78,31.78,0,0,1,4,1.59c.88,4.3,1.44,8.58,2,13a151.21,151.21,0,0,0,4,21.86l3.07,11.21c-33.33,73.47-94.7,144.71-216.46,209.8C141.81,528.86,157.43,361.6,133.3,204.4c134.81-94.8,402.84-94.8,537.66,0-5.44,35.43-8.87,71.37-13.89,107.39-7.12-4.4-14.64-8.15-21.69-12.7a92.22,92.22,0,0,1-8.13-5.91c2.69-22.49,5.13-44.91,8.46-67.09-117.12-84.32-350-84.32-467.17,0"/><path class="cls-4" d="M589.58,316.29s11.12,14.43-6.4,9.52c3.05-3.95,4.1-3.86,6.4-9.52M590.64,288s-1.82,18.08-17.48,21.41c0,0-3.33,31-31.75,50.16-7.55,5.11-16.45,5.94-19.15,14.09-1.68,5.07.45,11.06,22.57,8.34,30.51-3.75,82.63-3.32,88.37,21.3.62-2,1.15-3.75,1.33-4.71,1.58-8.92-4-21.16-83.83-26a17.86,17.86,0,0,1-6.16.84c-14,.18-5.93-8,1.11-8a17,17,0,0,1,6.37.73c88.8,5.41,93,23.08,89.9,32.43-.9,2.71-6,18-6,18v0a43.22,43.22,0,0,1-1.62,4.16s39.4-41.09,25.08-69.54C644.47,321.55,608.25,330,590.64,288"/><path class="cls-1" d="M646.05,398.43a96.12,96.12,0,0,0,7.6-14.15c4.14-9.69,6.84-21.39,1.85-31.29a39,39,0,0,0-13.2-14.86,112.13,112.13,0,0,0-13.39-7.66l-2.26-1.15c43.19,25.61,19.4,69.11,19.4,69.11"/><path class="cls-1" d="M446.74,240s-26.14-2.37-88.87,16.62l43.57,5.68s-104.69,23.37-183.65,175c0,0,16.91-12.21,39.77-26.45v0s4.75-3.09,12.88-7.84C288.75,392,309.29,381,327.51,374c19.36-8.22,40.65-15.55,61-19.06,0,0-24.72,11.8-61.79,32.28-16.8,23.74-41.23,70.64-35.56,137.43,0,0,12.7-54.5,49.73-88.77a183.51,183.51,0,0,1,56.7-37.55s-15.1,12.88-43.7,46.53c-3.12,19.46-2.71,51.43,13.67,98.76,0,0,8.89-50.15,28.54-82.68a181.27,181.27,0,0,1,29.31-39.74S417.6,437,405.68,473.92c4.33,22.07,17.78,58,57.47,103,0,0-11.51-25.72-11.81-59.58a183.47,183.47,0,0,1,14.85-80.91s-2.06,20.45.81,66.23c8.51,15.58,24.67,37.1,55.39,63.18-38.6-58.35-44.25-137.54,18-177.84-4.09.13-12.25,0-15.81-1-4.89-1.39-10.62-4-11.83-9.11-1.76-7.45,6.36-14.08,13.62-16.89,15.89-6.17,25.42-16.24,33.28-31.22.89-1.67,1.77-3.58,2.62-5.59-32.63,33.43-63.12,16.67-63.12,16.67,20.13,3.13,38.28-11.93,38.28-11.93-26.71-8.05-24.92-23.32-24.92-23.32-10.16,1.89-58.21,1.93-58.21,1.93,17.3-5.66,54.27-10.42,54.27-10.42-13-2.68-84.81-4-84.81-4,39.24-7.28,76.44-3.55,95.27-4.1-13.35-6.86-36.37-18.74-36.37-18.74,14.19,2.39,36.95,7.53,50.83,13.27C546.74,289,552.78,303,574,296.8c12.41-3.61,13.29-16.37,5.43-30.63-27.69-50.32-160.79-53.45-186.07-42.54,9.94,2.65,26.07,6.79,53.43,16.33"/><path class="cls-1" d="M557.09,318.37s-7.85,5.76-15,5.52c-25.6-.8-35.07-46-.32-19.87-4.64-1.48-9.42-1-11.7,1.4-2.86,3-.75,7.92,4.71,10.95s12.22,3,15.07.05a4.57,4.57,0,0,0,1.13-4.36c2,1.91,4,4,6.09,6.31"/><path class="cls-1" d="M543.83,311.32a3,3,0,0,1,2.29,3.55,3,3,0,0,1-3.6,2.23,2.94,2.94,0,0,1-2.27-3.54,3,3,0,0,1,3.58-2.24"/><path class="cls-5" d="M424.4,225.28c-4.8-.07-9.31-.07-13.45,0l38.25,13.33a84.13,84.13,0,0,0-24.8-13.3m-56.31,30.5,45.58,6,26.91-3.93ZM410.28,460.1a107.23,107.23,0,0,0,4.09,22.76c6.48,22.87,19,45,33.55,65-.09-.49-.17-1-.27-1.46-4.24-23.21-3.9-47.45,2.74-70.2h0l-14.54,29.94c-.41,1.82-7.91-41-7.91-41l-3.7,18.05c-5.61-11-8.64-24.5-10.21-33.7-1.16,3.23-2.42,6.76-3.73,10.61m-47.51-25.45a86.86,86.86,0,0,0-3.13,15.26c-2.69,22.07,1,46.35,7,68.83a296.3,296.3,0,0,1,13.21-39.61c4.92-11.68,11.15-23.8,19.31-33.61l15.51-18.68L370.57,467c-3.26-13.59.86-33,4.52-46q-5.52,6-12.32,13.71m16.78-27.56-.08.1,0,0Zm-38.83-27.46c-1.2,1.41-2.33,2.81-3.41,4.15a177.08,177.08,0,0,0-18.59,28.9,197.2,197.2,0,0,0-21.22,75c1.05-2.36,2.15-4.71,3.3-7,13-26.22,31.85-51.25,58.06-65.71q12.22-6.74,24.46-13.51a149.51,149.51,0,0,0-42.48,16.11l12.11-17c-18.85,7-33.79,33.05-33.79,33.05,2.92-14.15,19.24-43.71,26.71-56.77Zm46-109c-15.23,6.27-30.69,18.24-44.18,27.55-43.93,30.28-79,72.7-106,118.45,16.15-10.65,32.71-20.86,49.71-30.1,16.48-9,35.37-18.34,53.56-23.25l-53.67,8.8c15.49-32.58,100.58-101.45,100.58-101.45M499,534.94c-12.41-31-16.59-65.8-5.8-97.27a103.57,103.57,0,0,1,29.89-44.52.84.84,0,0,1-.2,0c-41.17,8-53.76,99.56-53.76,99.57.59,1.3,1.2,2.57,1.82,3.81,6.8,13.49,16.89,26.53,28,38.46m34.29-255.58c13,6,20.6,18.37,39.71,12.82,13.29-3.87,9.07-14.42,3.41-23.59-6.67-10.82-20.19-19-37.11-25.12,22,12.35,41.84,29.36,33.22,38.5s-38.29-2.25-39.23-2.61"/></svg>